<?xml version="1.0" standalone="no"?>
<!DOCTYPE svg PUBLIC "-//W3C//DTD SVG 20010904//EN"
 "http://www.w3.org/TR/2001/REC-SVG-20010904/DTD/svg10.dtd">
<svg version="1.0" xmlns="http://www.w3.org/2000/svg"
 width="640.000000pt" height="640.000000pt" viewBox="0 0 640.000000 640.000000"
 preserveAspectRatio="xMidYMid meet">
<metadata>
Created by potrace 1.11, written by Peter Selinger 2001-2013
</metadata>
<g transform="translate(0.000000,640.000000) scale(0.100000,-0.100000)"
fill="#000000" stroke="none">
<path d="M1844 5893 c-66 -12 -149 -47 -206 -86 -43 -29 -108 -93 -108 -105 0
-5 -7 -12 -15 -16 -8 -3 -15 -10 -15 -15 0 -5 -39 -76 -86 -158 -48 -81 -92
-157 -98 -168 -35 -61 -147 -256 -207 -359 -38 -66 -69 -121 -69 -123 0 -2
-11 -20 -24 -41 -40 -63 -136 -231 -137 -239 0 -5 -6 -15 -13 -23 -7 -8 -39
-60 -70 -115 -31 -55 -61 -107 -66 -115 -11 -17 -96 -166 -141 -248 -17 -29
-43 -74 -59 -100 -25 -41 -58 -99 -145 -251 -11 -20 -45 -79 -76 -131 -118
-200 -147 -268 -145 -338 1 -18 -1 -32 -4 -32 -5 0 -4 -58 0 -70 1 -3 2 -9 1
-14 -6 -33 41 -168 79 -226 18 -28 100 -172 100 -176 0 -2 16 -28 35 -58 19
-30 35 -60 35 -66 0 -5 4 -10 10 -10 5 0 9 -3 8 -7 -1 -5 5 -19 14 -33 35 -55
88 -152 88 -161 0 -5 5 -9 10 -9 6 0 10 -4 10 -10 0 -5 14 -33 31 -62 35 -59
43 -72 120 -208 29 -52 56 -97 59 -100 4 -4 18 -29 63 -111 7 -13 25 -43 40
-66 15 -24 27 -45 27 -48 0 -2 18 -34 40 -70 22 -36 40 -69 40 -74 0 -5 3 -11
8 -13 4 -1 15 -19 26 -38 24 -45 236 -412 258 -448 10 -15 21 -34 25 -42 14
-31 227 -394 242 -414 60 -75 194 -165 271 -182 78 -17 250 -19 1435 -18 1047
1 1309 4 1345 14 25 8 47 14 50 14 16 3 128 63 148 80 67 56 103 98 138 161 6
11 46 81 89 155 43 74 83 144 89 155 6 11 14 22 17 25 3 3 12 19 21 35 16 33
20 40 167 295 55 96 104 180 108 186 9 12 23 35 62 107 16 29 53 93 82 142 29
50 57 100 63 112 6 13 14 23 19 23 4 0 7 5 7 10 0 8 116 217 165 295 7 11 12
24 13 29 0 5 4 12 9 15 9 7 22 29 67 111 16 30 32 57 35 60 3 3 15 23 26 45
11 22 22 42 25 45 8 8 191 328 217 381 24 48 28 62 39 134 21 137 -18 282
-115 425 -10 14 -41 68 -71 120 -30 52 -57 97 -62 98 -4 2 -8 10 -8 18 0 7
-16 38 -35 68 -19 30 -35 59 -35 65 0 5 -3 11 -7 13 -5 2 -17 21 -29 43 -12
22 -77 137 -146 255 -69 118 -133 229 -142 245 -9 17 -30 53 -46 80 -17 28
-36 61 -42 75 -7 14 -16 30 -21 35 -8 10 -184 314 -240 415 -17 30 -43 75 -58
100 -15 25 -43 73 -61 108 -18 34 -36 62 -40 62 -5 0 -8 5 -8 11 0 6 -23 49
-51 97 -66 111 -87 148 -113 196 -33 62 -130 151 -207 190 -38 19 -69 33 -69
29 0 -3 -6 0 -14 6 -7 6 -32 12 -55 14 -22 1 -41 4 -41 7 0 3 -588 5 -1306 5
-968 0 -1322 -3 -1370 -12z"/>
</g>
</svg>
